<?xml version="1.0" standalone="no"?>
<!DOCTYPE svg PUBLIC "-//W3C//DTD SVG 20010904//EN"
 "http://www.w3.org/TR/2001/REC-SVG-20010904/DTD/svg10.dtd">
<svg version="1.0" xmlns="http://www.w3.org/2000/svg"
 width="767.000000pt" height="767.000000pt" viewBox="0 0 767.000000 767.000000"
 preserveAspectRatio="xMidYMid meet">

<g transform="translate(0.000000,767.000000) scale(0.100000,-0.100000)"
fill="#000000" stroke="none">
<path d="M3283 5051 c-55 -25 -118 -91 -139 -146 -61 -161 131 -226 280 -95
49 44 76 98 76 155 0 38 -5 52 -29 76 -26 25 -37 29 -88 29 -35 0 -74 -8 -100
-19z"/>
<path d="M2676 4640 c-10 -28 -17 -53 -14 -55 2 -2 26 -5 53 -7 48 -3 50 -2
66 32 37 80 37 80 -28 80 l-59 0 -18 -50z"/>
<path d="M3049 4663 c-25 -65 -71 -189 -72 -197 -1 -5 24 -9 56 -9 31 -1 57
-4 57 -8 0 -3 -10 -29 -21 -57 l-21 -51 -61 -3 -61 -3 -20 -52 c-22 -56 -33
-63 -102 -59 l-41 2 -21 -58 -21 -58 54 0 c62 0 63 -1 38 -71 l-18 -49 -60 0
-60 0 -22 -55 -21 -55 43 0 c73 0 77 -4 55 -61 -11 -27 -20 -52 -20 -54 0 -3
78 -5 174 -5 l174 0 10 28 c6 15 72 189 147 387 75 198 150 395 166 438 l28
77 -174 0 -175 0 -11 -27z m70 -447 c0 -6 -8 -33 -18 -61 l-18 -50 -59 0 c-67
0 -68 2 -34 79 l18 43 56 0 c33 -1 56 -5 55 -11z"/>
<path d="M3419 4541 c-31 -80 -56 -147 -55 -147 0 -1 41 -4 90 -7 48 -3 90 -8
93 -10 2 -3 -48 -141 -111 -306 -64 -166 -116 -305 -116 -309 0 -4 79 -7 175
-7 l174 0 117 312 117 312 100 3 100 3 54 144 c30 79 53 145 51 146 -2 2 -167
5 -368 8 l-365 4 -56 -146z"/>
<path d="M4292 4593 c-27 -49 -79 -143 -116 -211 -37 -68 -97 -176 -133 -240
-184 -329 -213 -380 -213 -384 0 -1 75 -4 168 -6 l167 -2 128 257 c104 209
128 249 123 213 -3 -25 -8 -74 -11 -110 -3 -36 -10 -117 -15 -180 -5 -63 -10
-130 -10 -147 l0 -33 103 0 102 0 70 102 c101 148 258 381 272 404 9 15 9 10
2 -25 -5 -24 -14 -51 -18 -60 -5 -9 -30 -99 -55 -201 -26 -102 -49 -193 -52
-202 -5 -17 7 -18 165 -18 l169 0 17 73 c9 39 41 189 71 332 30 143 59 278 64
300 21 92 41 181 46 203 l4 22 -182 -2 -182 -3 -50 -72 c-128 -182 -196 -283
-231 -345 -21 -37 -40 -66 -41 -65 -2 2 5 70 15 152 11 83 22 192 26 243 l7
92 -181 0 -180 0 -49 -87z"/>
<path d="M2749 4452 c-20 -2 -29 -12 -42 -50 -10 -26 -17 -50 -17 -54 0 -5 27
-8 59 -8 l60 0 15 54 c9 30 16 56 16 58 0 5 -49 5 -91 0z"/>
<path d="M2306 4307 c-33 -80 -34 -77 33 -77 34 0 61 2 61 5 0 2 9 27 20 55
l20 50 -60 0 c-58 0 -60 -1 -74 -33z"/>
<path d="M2522 4220 c-8 -5 -42 -89 -42 -103 0 -4 26 -7 58 -7 l57 0 18 51
c10 28 16 54 12 57 -8 8 -93 10 -103 2z"/>
<path d="M2296 3958 c-33 -80 -34 -78 31 -78 l59 0 17 48 c9 26 17 50 17 55 0
4 -25 7 -56 7 -53 0 -56 -1 -68 -32z"/>
<path d="M800 2795 l0 -305 45 0 45 0 0 305 0 305 -45 0 -45 0 0 -305z"/>
<path d="M2872 3019 c-30 -68 -30 -70 -9 -67 19 3 106 109 107 131 0 4 -15 7
-33 7 -31 0 -35 -4 -65 -71z"/>
<path d="M3582 2843 c4 -271 8 -293 65 -330 40 -26 153 -24 191 3 53 40 57 58
60 327 l4 247 -41 0 -41 0 0 -231 c0 -274 -4 -289 -80 -289 -76 0 -80 15 -80
289 l0 231 -41 0 -41 0 4 -247z"/>
<path d="M1722 3048 c-28 -28 -7 -78 33 -78 27 0 45 18 45 45 0 27 -18 45 -45
45 -12 0 -26 -5 -33 -12z"/>
<path d="M2612 3048 c-7 -7 -12 -21 -12 -33 0 -12 5 -26 12 -33 7 -7 21 -12
33 -12 12 0 26 5 33 12 7 7 12 21 12 33 0 12 -5 26 -12 33 -7 7 -21 12 -33 12
-12 0 -26 -5 -33 -12z"/>
<path d="M4319 3039 c-23 -44 16 -82 65 -63 19 7 21 55 4 72 -19 19 -56 14
-69 -9z"/>
<path d="M5508 3034 c-14 -31 -1 -57 31 -62 28 -4 51 14 51 42 0 50 -62 65
-82 20z"/>
<path d="M6412 3048 c-7 -7 -12 -21 -12 -33 0 -12 5 -26 12 -33 7 -7 21 -12
33 -12 12 0 26 5 33 12 7 7 12 21 12 33 0 12 -5 26 -12 33 -7 7 -21 12 -33 12
-12 0 -26 -5 -33 -12z"/>
<path d="M1540 2946 c0 -49 -2 -54 -20 -49 -17 5 -20 0 -20 -27 0 -27 3 -32
20 -27 19 5 20 0 20 -169 l0 -174 35 0 35 0 0 170 0 170 31 0 c27 0 30 3 27
28 -2 21 -9 28 -30 30 -26 3 -28 6 -28 53 l0 49 -35 0 -35 0 0 -54z"/>
<path d="M1890 2950 c0 -43 -3 -50 -20 -50 -14 0 -20 -7 -20 -24 0 -15 7 -26
20 -29 19 -5 20 -14 20 -176 l0 -171 35 0 35 0 0 169 0 170 28 3 c21 2 27 8
27 28 0 20 -6 26 -27 28 -26 3 -28 6 -28 53 l0 49 -35 0 -35 0 0 -50z"/>
<path d="M5680 2950 c0 -47 -5 -55 -32 -51 -5 0 -8 -12 -8 -29 0 -23 4 -30 20
-30 19 0 20 -7 20 -170 l0 -170 35 0 35 0 0 170 c0 129 3 170 13 171 6 1 19 2
27 3 8 0 16 13 18 29 3 24 0 27 -27 27 -30 0 -31 1 -31 50 l0 50 -35 0 -35 0
0 -50z"/>
<path d="M980 2700 l0 -200 35 0 35 0 0 150 c0 137 2 152 20 170 26 26 45 25
64 -2 13 -18 16 -53 16 -170 l0 -148 35 0 35 0 0 175 c0 173 0 176 -25 200
-30 31 -82 33 -119 4 l-26 -20 0 20 c0 17 -6 21 -35 21 l-35 0 0 -200z"/>
<path d="M1319 2871 c-23 -24 -29 -38 -29 -74 0 -47 7 -59 80 -137 31 -34 38
-68 18 -88 -15 -15 -53 -16 -79 -2 -17 10 -19 7 -19 -29 0 -36 2 -39 34 -45
71 -13 131 21 142 81 9 50 -2 78 -57 139 -38 42 -49 62 -47 81 4 37 30 50 68
36 30 -11 30 -11 30 22 0 37 -12 45 -72 45 -30 0 -46 -7 -69 -29z"/>
<path d="M1720 2700 l0 -200 35 0 35 0 0 200 0 200 -35 0 -35 0 0 -200z"/>
<path d="M2065 2892 c-8 -9 -5 -263 4 -312 11 -53 37 -77 96 -86 61 -9 116 18
132 66 7 21 12 97 12 188 l1 153 -37 -3 -38 -3 -2 -154 c-1 -84 -4 -160 -7
-167 -7 -18 -60 -18 -75 -1 -6 8 -12 75 -13 168 l-3 154 -32 1 c-18 1 -35 -1
-38 -4z"/>
<path d="M2433 2885 c-39 -28 -55 -92 -51 -208 2 -88 6 -110 24 -134 29 -39
68 -56 110 -49 32 7 34 9 34 47 0 37 -2 39 -20 29 -46 -25 -80 30 -80 130 0
100 34 155 80 130 18 -10 20 -8 20 24 0 22 -6 36 -16 40 -28 11 -79 6 -101 -9z"/>
<path d="M2610 2698 l0 -198 35 0 35 0 0 200 0 199 -35 -1 -35 -1 0 -199z"/>
<path d="M2811 2875 c-40 -34 -55 -83 -55 -180 0 -106 27 -169 80 -191 112
-47 193 51 182 220 -8 123 -50 176 -137 176 -28 0 -48 -8 -70 -25z m114 -59
c33 -51 31 -194 -4 -237 -23 -28 -63 -20 -79 16 -15 33 -16 180 -1 208 23 44
60 50 84 13z"/>
<path d="M3090 2700 l0 -200 34 0 35 0 3 156 c3 141 5 157 22 170 21 15 55 10
68 -10 4 -6 8 -80 8 -163 l0 -153 35 0 35 0 0 175 c0 173 0 176 -25 200 -30
31 -82 33 -118 5 -25 -20 -25 -20 -30 0 -4 15 -14 20 -36 20 l-31 0 0 -200z"/>
<path d="M3990 2698 l0 -198 35 0 35 0 0 150 c0 137 2 152 20 170 22 22 37 25
60 10 12 -7 16 -40 18 -170 l3 -160 35 0 34 0 0 175 c0 173 0 176 -25 200 -28
29 -80 33 -111 10 -25 -19 -34 -19 -34 0 0 12 -9 15 -35 13 l-35 -2 0 -198z"/>
<path d="M4320 2701 l0 -201 39 0 39 0 -2 198 -1 197 -37 3 -38 3 0 -200z"/>
<path d="M4450 2891 c0 -6 73 -292 90 -353 9 -33 15 -38 39 -38 l29 0 46 185
c25 101 46 191 46 198 0 8 -14 14 -34 15 l-34 2 -26 -137 c-27 -141 -36 -168
-36 -117 -1 16 -11 79 -23 139 l-23 110 -37 1 c-20 1 -37 -2 -37 -5z"/>
<path d="M4791 2875 c-38 -33 -55 -105 -49 -211 6 -97 26 -140 75 -161 74 -30
150 10 160 85 6 41 5 42 -24 42 -24 0 -31 -6 -41 -34 -30 -83 -109 -39 -100
55 l3 34 68 -3 c106 -5 111 -2 102 72 -12 110 -43 146 -125 146 -27 0 -48 -8
-69 -25z m119 -71 c21 -55 15 -64 -45 -64 -52 0 -55 1 -55 25 0 80 74 109 100
39z"/>
<path d="M5060 2700 l0 -200 35 0 35 0 0 133 c0 154 8 178 63 191 33 9 37 13
37 43 0 42 -25 44 -69 7 l-31 -26 0 26 c0 23 -4 26 -35 26 l-35 0 0 -200z"/>
<path d="M5298 2877 c-29 -27 -44 -82 -33 -118 4 -12 26 -43 50 -68 23 -25 47
-55 52 -65 25 -46 -22 -80 -79 -58 -27 10 -28 9 -28 -24 0 -39 14 -48 71 -48
71 -1 109 38 109 112 0 41 -17 71 -72 128 -39 39 -47 71 -26 92 16 16 61 15
77 0 10 -11 12 -5 9 27 l-3 40 -51 3 c-42 2 -54 -1 -76 -21z"/>
<path d="M5510 2698 l0 -198 35 0 35 0 0 199 0 199 -35 -1 -35 -1 0 -198z"/>
<path d="M5886 2877 c-26 -27 -46 -102 -46 -177 0 -131 48 -219 112 -206 18 3
40 14 50 23 17 15 18 15 18 0 0 -13 9 -17 35 -17 l35 0 0 198 0 198 -35 2
c-26 2 -35 -1 -35 -13 0 -15 -2 -15 -22 -1 -33 24 -85 20 -112 -7z m110 -51
c16 -12 20 -29 22 -115 3 -81 1 -107 -12 -126 -33 -50 -77 -21 -90 58 -10 57
4 157 25 178 23 23 29 23 55 5z"/>
<path d="M6187 2893 c-4 -3 -7 -93 -7 -200 l0 -193 35 0 35 0 0 118 c0 139 10
184 46 200 13 7 31 12 39 12 10 0 15 11 15 35 0 44 -24 47 -69 9 l-31 -26 0
26 c0 22 -5 26 -28 26 -16 0 -32 -3 -35 -7z"/>
<path d="M6410 2700 l0 -200 35 0 35 0 0 200 0 200 -35 0 -35 0 0 -200z"/>
<path d="M6602 2877 c-31 -33 -42 -79 -42 -177 0 -146 28 -205 98 -205 26 0
48 7 61 19 19 17 21 17 21 3 0 -13 9 -17 35 -17 l35 0 0 198 0 198 -35 2 c-26
2 -35 -1 -35 -13 0 -19 -14 -19 -30 0 -20 24 -83 19 -108 -8z m112 -56 c34
-37 33 -212 0 -246 -46 -46 -84 10 -84 124 0 119 37 173 84 122z"/>
<path d="M6810 2290 c0 -5 5 -10 11 -10 5 0 7 5 4 10 -3 6 -8 10 -11 10 -2 0
-4 -4 -4 -10z"/>
<path d="M6810 2249 c0 -5 5 -7 10 -4 6 3 10 8 10 11 0 2 -4 4 -10 4 -5 0 -10
-5 -10 -11z"/>
<path d="M4360 2079 c0 -5 5 -7 10 -4 6 3 10 8 10 11 0 2 -4 4 -10 4 -5 0 -10
-5 -10 -11z"/>
<path d="M5562 1998 c1 -95 5 -83 10 30 2 34 0 62 -4 62 -5 0 -7 -42 -6 -92z"/>
<path d="M4394 1955 c0 -71 1 -99 3 -62 2 37 2 96 0 130 -2 34 -3 4 -3 -68z"/>
<path d="M5594 1845 c0 -132 2 -185 3 -117 2 68 2 176 0 240 -1 64 -3 9 -3
-123z"/>
<path d="M5613 2030 c0 -25 2 -35 4 -22 2 12 2 32 0 45 -2 12 -4 2 -4 -23z"/>
<path d="M5971 2054 c0 -11 3 -14 6 -6 3 7 2 16 -1 19 -3 4 -6 -2 -5 -13z"/>
<path d="M6541 2054 c0 -11 3 -14 6 -6 3 7 2 16 -1 19 -3 4 -6 -2 -5 -13z"/>
<path d="M2922 2030 c0 -19 2 -27 5 -17 2 9 2 25 0 35 -3 9 -5 1 -5 -18z"/>
<path d="M4159 2058 c-8 -29 -7 -47 4 -42 14 5 18 44 5 44 -4 0 -8 -1 -9 -2z"/>
<path d="M1170 2031 c-6 -12 -7 -21 -1 -21 10 0 24 30 17 37 -2 3 -9 -5 -16
-16z"/>
<path d="M4190 2028 c0 -19 2 -20 10 -8 13 19 13 30 0 30 -5 0 -10 -10 -10
-22z"/>
<path d="M5097 2025 c-27 -26 -36 -42 -16 -29 6 3 15 1 19 -6 5 -8 9 -7 13 5
4 9 3 13 -3 10 -16 -10 -12 7 7 27 24 26 12 22 -20 -7z"/>
<path d="M5715 2030 c-3 -5 -3 -10 1 -10 4 0 0 -6 -10 -13 -16 -12 -16 -14 -3
-26 12 -9 21 -10 36 -1 27 14 27 27 0 35 -17 6 -19 9 -8 16 9 6 10 9 2 9 -6 0
-15 -4 -18 -10z m29 -29 c3 -5 -1 -11 -9 -15 -9 -3 -15 0 -15 9 0 16 16 20 24
6z"/>
<path d="M2234 2021 c4 -5 0 -12 -6 -15 -7 -3 -3 -3 10 0 15 4 22 1 20 -6 -2
-7 4 -15 12 -17 13 -4 13 -3 0 6 -11 8 -12 11 -2 11 22 0 8 23 -17 27 -12 2
-20 -1 -17 -6z"/>
<path d="M5130 2026 c0 -2 9 -6 20 -9 11 -3 18 -1 14 4 -5 9 -34 13 -34 5z"/>
<path d="M5188 2023 c6 -2 18 -2 25 0 6 3 1 5 -13 5 -14 0 -19 -2 -12 -5z"/>
<path d="M1193 1990 c0 -23 3 -28 9 -16 5 9 5 23 0 32 -6 12 -9 7 -9 -16z"/>
<path d="M4202 2000 c-7 -11 -12 -28 -12 -37 1 -10 7 -3 16 16 16 38 14 50 -4
21z"/>
<path d="M6543 1955 c0 -27 2 -38 4 -22 2 15 2 37 0 50 -2 12 -4 0 -4 -28z"/>
<path d="M1126 1965 c-4 -14 -3 -32 1 -40 5 -9 9 0 9 25 2 46 -1 50 -10 15z"/>
<path d="M2923 1935 c0 -33 2 -45 4 -27 2 18 2 45 0 60 -2 15 -4 0 -4 -33z"/>
<path d="M4411 1974 c0 -11 3 -14 6 -6 3 7 2 16 -1 19 -3 4 -6 -2 -5 -13z"/>
<path d="M4520 1979 c0 -5 5 -7 10 -4 6 3 10 8 10 11 0 2 -4 4 -10 4 -5 0 -10
-5 -10 -11z"/>
<path d="M4155 1970 c-3 -5 -1 -10 4 -10 6 0 11 5 11 10 0 6 -2 10 -4 10 -3 0
-8 -4 -11 -10z"/>
<path d="M4220 1968 c0 -9 -7 -21 -15 -28 -8 -7 -15 -18 -15 -24 0 -6 5 -4 11
4 8 11 9 7 4 -17 -4 -18 -4 -33 -2 -33 8 0 28 102 22 108 -3 3 -5 -2 -5 -10z"/>
<path d="M5060 1961 c0 -11 -3 -28 -7 -38 -3 -10 -3 -15 1 -12 12 11 25 69 15
69 -5 0 -9 -9 -9 -19z"/>
<path d="M5085 1952 c-3 -7 -1 -21 5 -30 8 -15 9 -15 10 4 0 11 5 25 10 30 7
7 6 11 -4 11 -8 0 -18 -7 -21 -15z"/>
<path d="M1161 1947 c-16 -16 -14 -32 3 -18 11 9 15 9 18 -1 3 -7 7 -8 10 -3
10 16 -18 35 -31 22z"/>
<path d="M2411 1944 c0 -11 3 -14 6 -6 3 7 2 16 -1 19 -3 4 -6 -2 -5 -13z"/>
<path d="M4540 1944 c0 -8 5 -12 10 -9 6 4 8 11 5 16 -9 14 -15 11 -15 -7z"/>
<path d="M4120 1925 c0 -14 4 -25 9 -25 4 0 6 11 3 25 -2 14 -6 25 -8 25 -2 0
-4 -11 -4 -25z"/>
<path d="M5971 1923 c0 -18 4 -33 9 -33 6 0 10 -7 10 -17 0 -9 3 -13 7 -10 3
4 1 17 -5 30 -6 12 -13 31 -15 42 -3 12 -5 7 -6 -12z"/>
<path d="M4145 1930 c-3 -5 -1 -10 4 -10 6 0 11 5 11 10 0 6 -2 10 -4 10 -3 0
-8 -4 -11 -10z"/>
<path d="M2091 1914 c0 -11 3 -14 6 -6 3 7 2 16 -1 19 -3 4 -6 -2 -5 -13z"/>
<path d="M1112 1895 c0 -16 2 -22 5 -12 2 9 2 23 0 30 -3 6 -5 -1 -5 -18z"/>
<path d="M2365 1909 c-11 -16 -1 -19 13 -3 7 8 8 14 3 14 -5 0 -13 -5 -16 -11z"/>
<path d="M5071 1904 c0 -11 3 -14 6 -6 3 7 2 16 -1 19 -3 4 -6 -2 -5 -13z"/>
<path d="M1188 1893 c5 -10 7 -25 5 -33 -4 -12 -3 -13 5 -1 6 8 15 10 23 6 7
-5 4 4 -7 18 -21 30 -39 36 -26 10z"/>
<path d="M1436 1899 c3 -5 -1 -9 -8 -9 -9 0 -9 -3 2 -10 10 -6 11 -10 3 -10
-7 0 -13 -5 -13 -11 0 -8 5 -8 15 1 8 7 12 17 9 22 -4 6 2 7 16 3 14 -4 20 -3
16 3 -3 5 -15 12 -26 15 -11 3 -18 1 -14 -4z"/>
<path d="M1804 1895 c11 -8 26 -15 33 -15 7 0 13 -5 13 -11 0 -6 -6 -9 -12 -6
-7 2 -24 7 -38 11 -22 5 -22 4 3 -7 16 -8 33 -20 38 -28 7 -11 9 -10 9 6 0 14
3 16 11 8 8 -8 8 -17 0 -31 -6 -11 -11 -27 -10 -34 0 -7 5 0 11 16 8 22 13 25
20 15 6 -10 7 -6 2 11 -9 35 -31 57 -67 69 -29 10 -30 10 -13 -4z"/>
<path d="M2031 1898 c-1 -10 -6 -18 -12 -18 -5 0 -7 5 -4 10 3 6 0 10 -8 10
-10 0 -14 -9 -13 -25 1 -24 16 -37 16 -14 0 7 10 9 25 5 17 -4 25 -2 25 6 1 8
5 7 14 -4 13 -17 26 -14 26 5 0 6 -3 7 -7 4 -3 -4 -15 0 -25 10 -17 15 -18 15
-19 -3 -1 -15 -3 -13 -9 6 -5 17 -8 19 -9 8z"/>
<path d="M2130 1896 c0 -8 4 -17 9 -20 5 -4 7 3 4 14 -6 23 -13 26 -13 6z"/>
<path d="M2390 1900 c-12 -8 -10 -10 8 -10 13 0 20 4 17 10 -7 12 -6 12 -25 0z"/>
<path d="M4150 1894 c0 -8 5 -12 10 -9 6 3 10 10 10 16 0 5 -4 9 -10 9 -5 0
-10 -7 -10 -16z"/>
<path d="M5613 1830 c0 -47 2 -66 4 -42 2 23 2 61 0 85 -2 23 -4 4 -4 -43z"/>
<path d="M5890 1898 c-12 -8 -12 -9 3 -4 10 3 17 0 17 -9 0 -17 58 -47 66 -34
3 6 3 13 0 16 -3 4 -6 2 -6 -4 0 -8 -8 -8 -25 0 -14 7 -25 17 -25 24 0 18 -14
23 -30 11z"/>
<path d="M6402 1894 c-12 -8 -22 -25 -22 -36 0 -12 3 -18 7 -14 4 4 8 15 8 23
0 9 6 18 14 21 8 2 11 0 8 -5 -3 -5 0 -10 8 -10 10 0 12 4 5 12 -5 7 -7 15 -3
18 12 12 -2 7 -25 -9z"/>
<path d="M6517 1890 c-3 -11 -1 -20 4 -20 5 0 9 9 9 20 0 11 -2 20 -4 20 -2 0
-6 -9 -9 -20z"/>
<path d="M1626 1892 c-3 -5 1 -9 9 -9 8 0 12 4 9 9 -3 4 -7 8 -9 8 -2 0 -6 -4
-9 -8z"/>
<path d="M3061 1887 c-8 -10 -7 -14 4 -14 8 0 12 4 9 8 -2 4 4 10 13 12 15 4
15 5 2 6 -9 0 -22 -5 -28 -12z"/>
<path d="M3116 1892 c-3 -5 1 -9 9 -9 8 0 12 4 9 9 -3 4 -7 8 -9 8 -2 0 -6 -4
-9 -8z"/>
<path d="M3181 1893 c-1 -18 13 -23 29 -11 12 8 12 9 -2 5 -9 -3 -19 -1 -22 6
-3 9 -5 9 -5 0z"/>
<path d="M3445 1868 c-18 -21 -25 -38 -21 -52 3 -12 6 -35 6 -51 0 -24 5 -31
21 -32 18 -2 19 0 6 10 -18 15 -30 87 -17 107 9 13 11 13 21 0 8 -12 9 -10 4
8 -4 13 -2 22 4 22 6 0 11 -4 11 -10 0 -5 5 -10 11 -10 8 0 9 4 0 13 -6 8 -8
17 -4 20 3 4 1 7 -4 7 -6 0 -23 -14 -38 -32z"/>
<path d="M4225 1881 c-4 -13 -4 -25 -1 -28 3 -4 6 2 6 13 0 16 2 17 10 4 5 -8
10 -10 10 -5 0 6 -4 16 -9 24 -7 11 -10 9 -16 -8z"/>
<path d="M4525 1888 c-15 -6 -13 -7 8 -3 20 4 27 2 22 -6 -5 -7 0 -7 16 1 13
7 25 14 27 15 7 6 -57 0 -73 -7z"/>
<path d="M6257 1889 c7 -7 15 -10 18 -7 3 3 -2 9 -12 12 -14 6 -15 5 -6 -5z"/>
<path d="M6446 1890 c5 -8 9 -18 9 -22 0 -3 3 -9 7 -13 3 -4 5 0 4 9 -1 9 -8
22 -16 29 -10 10 -11 9 -4 -3z"/>
<path d="M1134 1837 l-1 -52 10 43 c6 26 6 47 1 52 -5 5 -9 -12 -10 -43z"/>
<path d="M1543 1883 c9 -2 23 -2 30 0 6 3 -1 5 -18 5 -16 0 -22 -2 -12 -5z"/>
<path d="M1743 1882 c-9 -6 -7 -11 7 -20 12 -7 20 -8 20 -2 0 5 -5 10 -11 10
-5 0 -7 5 -4 10 7 12 4 12 -12 2z"/>
<path d="M2221 1868 c1 -16 3 -18 6 -6 2 9 14 19 26 21 18 4 17 5 -5 6 -23 1
-28 -3 -27 -21z"/>
<path d="M2665 1880 c-3 -5 -1 -10 4 -10 6 0 11 5 11 10 0 6 -2 10 -4 10 -3 0
-8 -4 -11 -10z"/>
<path d="M3508 1883 c6 -2 9 -10 5 -16 -3 -7 -2 -9 2 -4 12 11 45 -23 46 -47
0 -21 1 -21 8 -1 7 15 1 26 -22 48 -17 15 -35 27 -41 26 -6 0 -5 -3 2 -6z"/>
<path d="M3556 1876 c10 -8 21 -12 24 -10 5 6 -21 24 -34 24 -6 0 -1 -6 10
-14z"/>
<path d="M3740 1875 c-7 -9 -11 -17 -9 -20 3 -2 10 5 17 15 14 24 10 26 -8 5z"/>
<path d="M3820 1879 c-13 -7 -12 -9 2 -9 9 0 19 -6 21 -12 3 -8 6 -7 6 4 1 22
-11 29 -29 17z"/>
<path d="M4475 1881 c-3 -5 -2 -12 3 -15 5 -3 9 1 9 9 0 17 -3 19 -12 6z"/>
<path d="M4675 1873 c-4 -11 0 -11 18 -2 31 16 32 18 8 16 -11 -1 -23 -7 -26
-14z"/>
<path d="M4753 1868 c0 -12 1 -17 4 -10 3 8 11 4 25 -13 11 -14 27 -25 36 -25
15 1 14 2 -2 12 -11 6 -29 22 -41 35 l-21 25 -1 -24z"/>
<path d="M4794 1872 c11 -12 26 -22 35 -22 14 0 14 2 1 10 -13 9 -13 11 0 20
13 8 12 10 -2 10 -10 0 -18 -5 -18 -11 0 -8 -6 -7 -17 2 -15 11 -14 10 1 -9z"/>
<path d="M5050 1880 c0 -5 5 -10 11 -10 5 0 7 5 4 10 -3 6 -8 10 -11 10 -2 0
-4 -4 -4 -10z"/>
<path d="M5317 1872 c-10 -10 -17 -22 -17 -27 0 -4 8 2 19 13 22 27 32 28 25
5 -5 -16 -4 -16 6 0 11 17 14 17 36 3 19 -13 22 -13 18 -2 -5 13 -34 26 -60
26 -6 0 -18 -8 -27 -18z"/>
<path d="M5728 1883 c7 -3 16 -2 19 1 4 3 -2 6 -13 5 -11 0 -14 -3 -6 -6z"/>
<path d="M6112 1870 c-16 -26 -15 -35 1 -21 10 8 17 7 25 -1 9 -9 12 -9 12 0
0 7 -5 12 -11 12 -6 0 -9 7 -5 15 8 22 -7 18 -22 -5z"/>
<path d="M6150 1881 c0 -9 38 -12 44 -3 2 4 -7 8 -20 8 -13 1 -24 -1 -24 -5z"/>
<path d="M2615 1870 c-3 -5 -1 -10 4 -10 6 0 11 5 11 10 0 6 -2 10 -4 10 -3 0
-8 -4 -11 -10z"/>
<path d="M2900 1869 c0 -5 -4 -7 -10 -4 -21 13 -9 -12 17 -34 23 -21 25 -21
20 -5 -7 17 -6 17 9 -1 15 -18 16 -18 10 -2 -3 10 -6 26 -6 34 0 14 -3 13 -21
-3 -21 -19 -22 -19 -15 4 4 12 5 22 2 22 -3 0 -6 -5 -6 -11z"/>
<path d="M3091 1864 c0 -11 3 -14 6 -6 3 7 2 16 -1 19 -3 4 -6 -2 -5 -13z"/>
<path d="M3159 1871 c7 -5 9 -11 5 -13 -5 -3 -4 -3 3 -2 7 2 15 -1 18 -6 4 -6
3 -10 -2 -10 -9 0 -9 -57 0 -67 4 -3 7 10 7 30 0 24 6 39 18 46 15 9 15 10 -5
11 -12 0 -25 5 -28 10 -3 6 -12 10 -18 10 -8 0 -7 -3 2 -9z"/>
<path d="M5081 1864 c0 -11 3 -14 6 -6 3 7 2 16 -1 19 -3 4 -6 -2 -5 -13z"/>
<path d="M5860 1870 c-21 -7 -21 -8 -5 -9 11 0 27 4 35 9 18 11 5 11 -30 0z"/>
<path d="M1364 1859 c-3 -6 -2 -15 3 -20 5 -5 9 -1 9 11 0 23 -2 24 -12 9z"/>
<path d="M1603 1858 c-6 -7 -13 -20 -17 -28 -7 -13 -6 -13 6 0 8 8 20 21 28
28 8 6 9 12 3 12 -6 0 -15 -6 -20 -12z"/>
<path d="M2266 1853 c-6 -14 -5 -15 5 -6 7 7 10 15 7 18 -3 3 -9 -2 -12 -12z"/>
<path d="M2378 1856 c-19 -14 -25 -32 -8 -21 6 4 11 -26 12 -82 l2 -88 3 83
c4 85 22 115 24 40 2 -33 3 -36 6 -14 6 39 -5 79 -19 70 -8 -5 -9 -2 -5 9 8
20 7 20 -15 3z"/>
<path d="M2520 1861 c0 -6 5 -13 10 -16 6 -4 7 -11 4 -17 -4 -7 -2 -8 4 -4 9
5 9 13 2 27 -11 20 -20 25 -20 10z"/>
<path d="M2550 1860 c0 -5 5 -10 11 -10 5 0 7 5 4 10 -3 6 -8 10 -11 10 -2 0
-4 -4 -4 -10z"/>
<path d="M2636 1854 c-3 -9 -2 -23 4 -32 7 -14 9 -10 10 16 0 35 -5 41 -14 16z"/>
<path d="M2787 1857 c3 -6 -1 -15 -9 -21 -10 -7 -12 -18 -7 -31 7 -20 8 -20 8
1 1 29 11 36 30 21 14 -10 14 -10 3 5 -11 14 -10 17 5 20 13 3 11 6 -9 10 -17
3 -25 1 -21 -5z"/>
<path d="M4146 1853 c-6 -14 -5 -15 5 -6 7 7 10 15 7 18 -3 3 -9 -2 -12 -12z"/>
<path d="M5428 1863 c6 -2 18 -2 25 0 6 3 1 5 -13 5 -14 0 -19 -2 -12 -5z"/>
<path d="M5720 1860 c0 -5 4 -10 9 -10 6 0 13 5 16 10 3 6 -1 10 -9 10 -9 0
-16 -4 -16 -10z"/>
<path d="M6230 1860 c-8 -5 -12 -12 -9 -15 4 -3 12 1 19 10 14 17 11 19 -10 5z"/>
<path d="M6481 1854 c0 -11 3 -14 6 -6 3 7 2 16 -1 19 -3 4 -6 -2 -5 -13z"/>
<path d="M1116 1845 c-9 -26 -7 -32 5 -12 6 10 9 21 6 23 -2 3 -7 -2 -11 -11z"/>
<path d="M1712 1828 c-5 -18 -10 -46 -10 -63 -1 -28 0 -28 8 -7 5 12 6 30 3
39 -4 11 -3 14 5 9 7 -4 12 -13 12 -21 0 -16 27 -28 35 -14 4 5 3 8 -2 7 -4
-2 -9 1 -10 5 -1 4 -9 15 -18 23 -20 21 -19 35 3 27 15 -6 15 -5 3 10 -18 22
-18 22 -29 -15z"/>
<path d="M2120 1849 c0 -8 5 -21 10 -29 8 -12 9 -10 7 7 -4 26 -17 43 -17 22z"/>
<path d="M2666 1834 c-4 -15 -5 -29 -1 -32 3 -3 6 3 7 14 0 10 4 -1 8 -26 8
-45 8 -45 6 13 -1 61 -10 74 -20 31z"/>
<path d="M3700 1855 c0 -5 5 -17 10 -25 5 -8 10 -10 10 -5 0 6 -5 17 -10 25
-5 8 -10 11 -10 5z"/>
<path d="M4104 1833 c1 -19 5 -28 10 -23 6 6 5 18 -1 32 -10 21 -10 21 -9 -9z"/>
<path d="M5475 1851 c-3 -6 -11 -9 -16 -6 -5 4 -9 1 -9 -4 0 -13 10 -14 30 -1
8 5 12 12 8 15 -3 4 -9 1 -13 -4z"/>
<path d="M5875 1850 c-11 -5 -15 -9 -10 -9 6 -1 4 -5 -4 -10 -7 -5 -9 -10 -5
-13 5 -2 19 6 31 19 23 24 21 27 -12 13z"/>
<path d="M6410 1849 c0 -5 5 -7 10 -4 6 3 10 8 10 11 0 2 -4 4 -10 4 -5 0 -10
-5 -10 -11z"/>
<path d="M1564 1835 c-3 -8 -4 -20 -2 -27 3 -7 7 -1 10 15 6 29 1 36 -8 12z"/>
<path d="M1957 1843 c-4 -3 -7 -11 -7 -17 0 -6 4 -5 9 3 8 13 12 13 28 0 16
-13 17 -13 4 4 -14 18 -24 21 -34 10z"/>
<path d="M3062 1825 c-6 -13 -7 -27 -3 -30 5 -2 11 8 14 23 7 35 3 38 -11 7z"/>
<path d="M4241 1844 c-1 -6 4 -26 10 -45 6 -19 13 -40 15 -48 3 -8 7 -12 9 -9
3 2 -4 29 -14 59 -11 30 -20 49 -20 43z"/>
<path d="M4676 1835 c4 -8 7 -15 9 -15 2 0 5 7 9 15 3 9 0 15 -9 15 -9 0 -12
-6 -9 -15z"/>
<path d="M5308 1828 c-10 -10 -18 -26 -18 -35 1 -16 2 -15 12 2 6 11 16 23 21
26 5 4 8 11 6 16 -2 5 -12 1 -21 -9z"/>
<path d="M1208 1805 c5 -39 28 -75 47 -75 8 0 15 8 15 18 0 15 -2 15 -10 2 -9
-13 -12 -12 -26 5 -9 12 -12 30 -9 43 3 14 2 21 -4 18 -5 -4 -11 -1 -14 6 -2
7 -2 0 1 -17z"/>
<path d="M2086 1825 c4 -8 7 -15 9 -15 2 0 5 7 9 15 3 9 0 15 -9 15 -9 0 -12
-6 -9 -15z"/>
<path d="M2230 1766 c0 -40 -3 -89 -6 -107 -4 -19 -3 -31 1 -27 11 10 22 208
13 208 -5 0 -8 -33 -8 -74z"/>
<path d="M2513 1805 c6 -19 12 -33 14 -32 6 7 -9 67 -17 67 -5 0 -3 -16 3 -35z"/>
<path d="M3030 1814 c-8 -20 -8 -34 -1 -49 11 -19 11 -19 5 2 -3 12 0 32 6 43
7 12 9 24 6 27 -3 3 -10 -7 -16 -23z"/>
<path d="M4214 1811 c1 -24 26 -44 26 -21 0 6 -4 9 -9 5 -5 -3 -12 5 -14 17
-4 21 -4 21 -3 -1z"/>
<path d="M4647 1821 c-3 -12 -1 -18 4 -15 5 3 14 -5 19 -18 9 -20 10 -20 5 7
-8 39 -21 51 -28 26z"/>
<path d="M5713 1795 c0 -27 2 -38 4 -22 2 15 2 37 0 50 -2 12 -4 0 -4 -28z"/>
<path d="M5980 1830 c0 -5 5 -10 10 -10 6 0 10 5 10 10 0 6 -4 10 -10 10 -5 0
-10 -4 -10 -10z"/>
<path d="M6120 1821 c0 -25 6 -27 13 -6 4 8 2 17 -3 20 -6 4 -10 -3 -10 -14z"/>
<path d="M6521 1824 c0 -11 3 -14 6 -6 3 7 2 16 -1 19 -3 4 -6 -2 -5 -13z"/>
<path d="M2274 1745 c0 -49 1 -71 3 -48 2 23 2 64 0 90 -2 26 -3 8 -3 -42z"/>
<path d="M3202 1810 c0 -14 2 -19 5 -12 2 6 2 18 0 25 -3 6 -5 1 -5 -13z"/>
<path d="M4543 1790 c0 -25 2 -35 4 -22 2 12 2 32 0 45 -2 12 -4 2 -4 -23z"/>
<path d="M5031 1814 c0 -11 3 -14 6 -6 3 7 2 16 -1 19 -3 4 -6 -2 -5 -13z"/>
<path d="M5564 1740 c0 -52 1 -74 3 -47 2 26 2 68 0 95 -2 26 -3 4 -3 -48z"/>
<path d="M1391 1804 c0 -11 3 -14 6 -6 3 7 2 16 -1 19 -3 4 -6 -2 -5 -13z"/>
<path d="M6092 1800 c0 -14 2 -19 5 -12 2 6 2 18 0 25 -3 6 -5 1 -5 -13z"/>
<path d="M1242 1785 c0 -16 2 -22 5 -12 2 9 2 23 0 30 -3 6 -5 -1 -5 -18z"/>
<path d="M1982 1790 c0 -14 2 -19 5 -12 2 6 2 18 0 25 -3 6 -5 1 -5 -13z"/>
<path d="M5971 1794 c0 -11 3 -14 6 -6 3 7 2 16 -1 19 -3 4 -6 -2 -5 -13z"/>
<path d="M6392 1780 c0 -19 2 -27 5 -17 2 9 2 25 0 35 -3 9 -5 1 -5 -18z"/>
<path d="M6502 1780 c0 -19 2 -27 5 -17 2 9 2 25 0 35 -3 9 -5 1 -5 -18z"/>
<path d="M2931 1784 c0 -11 3 -14 6 -6 3 7 2 16 -1 19 -3 4 -6 -2 -5 -13z"/>
<path d="M4121 1784 c0 -11 3 -14 6 -6 3 7 2 16 -1 19 -3 4 -6 -2 -5 -13z"/>
<path d="M5821 1784 c0 -11 3 -14 6 -6 3 7 2 16 -1 19 -3 4 -6 -2 -5 -13z"/>
<path d="M1340 1774 c0 -10 5 -26 10 -34 8 -11 9 -7 4 15 -8 37 -14 45 -14 19z"/>
<path d="M1361 1784 c-1 -7 8 -31 18 -55 l20 -44 -2 37 c-1 20 -5 34 -10 31
-4 -2 -11 6 -16 19 -6 13 -10 18 -10 12z"/>
<path d="M1567 1771 c-4 -17 -3 -21 5 -13 5 5 8 16 6 23 -3 8 -7 3 -11 -10z"/>
<path d="M2120 1780 c0 -5 5 -10 10 -10 6 0 10 5 10 10 0 6 -4 10 -10 10 -5 0
-10 -4 -10 -10z"/>
<path d="M2541 1774 c0 -11 3 -14 6 -6 3 7 2 16 -1 19 -3 4 -6 -2 -5 -13z"/>
<path d="M4651 1780 c0 -8 4 -24 9 -35 5 -13 9 -14 9 -5 0 8 -4 24 -9 35 -5
13 -9 14 -9 5z"/>
<path d="M4808 1783 c7 -3 16 -2 19 1 4 3 -2 6 -13 5 -11 0 -14 -3 -6 -6z"/>
<path d="M5317 1763 c-6 -34 -5 -37 10 -14 6 10 8 23 3 30 -5 9 -9 3 -13 -16z"/>
<path d="M1103 1764 c-4 -11 -8 -12 -13 -4 -5 9 -9 9 -14 1 -6 -10 0 -13 20
-10 4 0 10 -5 14 -12 5 -7 7 -1 7 14 -2 31 -5 33 -14 11z"/>
<path d="M1531 1764 c0 -11 3 -14 6 -6 3 7 2 16 -1 19 -3 4 -6 -2 -5 -13z"/>
<path d="M3500 1768 c0 -7 4 -19 9 -27 7 -10 9 -7 8 12 -2 26 -17 39 -17 15z"/>
<path d="M3545 1770 c-3 -5 -1 -10 4 -10 6 0 11 5 11 10 0 6 -2 10 -4 10 -3 0
-8 -4 -11 -10z"/>
<path d="M3831 1764 c0 -11 3 -14 6 -6 3 7 2 16 -1 19 -3 4 -6 -2 -5 -13z"/>
<path d="M4087 1773 c-12 -12 -7 -22 8 -17 8 4 15 10 15 15 0 11 -14 12 -23 2z"/>
<path d="M5851 1770 c1 -8 5 -26 9 -40 l8 -25 1 25 c0 14 -4 32 -9 40 -9 13
-10 13 -9 0z"/>
<path d="M6523 1745 c0 -22 2 -30 4 -17 2 12 2 30 0 40 -3 9 -5 -1 -4 -23z"/>
<path d="M1841 1754 c0 -11 3 -14 6 -6 3 7 2 16 -1 19 -3 4 -6 -2 -5 -13z"/>
<path d="M1863 1760 c2 -8 12 -16 23 -17 13 -2 15 -1 4 4 -8 3 -19 11 -23 17
-6 7 -7 6 -4 -4z"/>
<path d="M2797 1738 c-3 -18 -7 -40 -10 -48 -2 -8 -2 -12 0 -7 3 4 8 5 12 2 4
-2 9 16 9 40 2 53 -3 59 -11 13z"/>
<path d="M5974 1756 c-3 -8 -1 -23 4 -32 8 -14 10 -11 9 14 -2 35 -5 39 -13
18z"/>
<path d="M2135 1749 c-4 -6 -5 -12 -2 -15 2 -3 7 2 10 11 7 17 1 20 -8 4z"/>
<path d="M2921 1740 c-2 -23 -3 -24 -11 -5 -7 16 -9 17 -9 3 -1 -9 4 -20 9
-23 15 -9 12 -36 -7 -57 -9 -10 -12 -18 -7 -19 5 0 18 -2 30 -3 20 -2 24 11
11 44 -4 8 -8 31 -10 50 -3 25 -4 28 -6 10z m7 -84 c-7 -8 -15 -12 -17 -11 -5
6 10 25 20 25 5 0 4 -6 -3 -14z"/>
<path d="M3187 1749 c-24 -82 -25 -87 -6 -103 11 -9 19 -12 19 -6 0 5 -6 13
-13 17 -11 6 -11 16 -1 48 l12 40 1 -37 c1 -20 4 -39 9 -42 10 -6 2 77 -9 88
-5 6 -10 4 -12 -5z"/>
<path d="M3474 1745 c8 -8 17 -15 20 -15 3 0 3 7 0 15 -4 8 -13 15 -21 15 -12
0 -12 -2 1 -15z"/>
<path d="M3813 1715 c0 -27 2 -38 4 -22 2 15 2 37 0 50 -2 12 -4 0 -4 -28z"/>
<path d="M4230 1753 c1 -14 27 -43 33 -37 7 7 -14 44 -25 44 -5 0 -8 -3 -8 -7z"/>
<path d="M5824 1745 c-3 -8 -4 -20 -2 -27 3 -7 7 -1 10 15 6 29 1 36 -8 12z"/>
<path d="M6107 1743 c4 -11 3 -14 -5 -9 -7 4 -12 3 -12 -3 0 -17 18 -21 24 -5
9 23 7 34 -4 34 -5 0 -6 -7 -3 -17z"/>
<path d="M1735 1740 c-3 -5 -1 -10 4 -10 6 0 11 5 11 10 0 6 -2 10 -4 10 -3 0
-8 -4 -11 -10z"/>
<path d="M3410 1729 c0 -13 5 -31 10 -39 7 -11 8 -5 4 20 -8 43 -14 51 -14 19z"/>
<path d="M3578 1743 c6 -2 18 -2 25 0 6 3 1 5 -13 5 -14 0 -19 -2 -12 -5z"/>
<path d="M3713 1710 c0 -25 2 -35 4 -22 2 12 2 32 0 45 -2 12 -4 2 -4 -23z"/>
<path d="M4118 1743 c7 -3 16 -2 19 1 4 3 -2 6 -13 5 -11 0 -14 -3 -6 -6z"/>
<path d="M4393 1680 c0 -41 2 -58 4 -37 2 20 2 54 0 75 -2 20 -4 3 -4 -38z"/>
<path d="M5291 1734 c0 -11 3 -14 6 -6 3 7 2 16 -1 19 -3 4 -6 -2 -5 -13z"/>
<path d="M6002 1730 c0 -14 2 -19 5 -12 2 6 2 18 0 25 -3 6 -5 1 -5 -13z"/>
<path d="M1070 1735 c0 -5 5 -17 10 -25 5 -8 10 -10 10 -5 0 6 -5 17 -10 25
-5 8 -10 11 -10 5z"/>
<path d="M4088 1733 c6 -2 9 -10 6 -15 -4 -7 -2 -8 5 -4 13 9 5 26 -12 25 -9
0 -8 -2 1 -6z"/>
<path d="M1216 1718 c5 -7 2 -9 -8 -5 -17 6 -19 -16 -3 -30 4 -4 5 -2 1 5 -4
7 -1 12 8 12 9 0 16 7 16 15 0 8 -5 15 -11 15 -5 0 -7 -5 -3 -12z"/>
<path d="M2512 1703 c-1 -17 -5 -40 -8 -50 -5 -14 -4 -15 4 -4 9 12 13 12 26
2 9 -8 16 -9 16 -3 0 5 -6 12 -14 15 -8 3 -16 21 -19 39 l-4 33 -1 -32z"/>
<path d="M3035 1703 c-4 -17 -2 -29 4 -31 21 -7 42 -34 37 -47 -3 -8 1 -16 9
-19 19 -7 0 46 -25 69 -10 9 -16 24 -13 36 3 10 3 19 0 19 -3 0 -8 -12 -12
-27z"/>
<path d="M4146 1715 c-3 -8 -3 -15 0 -15 3 0 12 7 20 15 13 13 13 15 1 15 -8
0 -17 -7 -21 -15z"/>
<path d="M4220 1719 c0 -5 -4 -8 -9 -5 -15 10 -40 -5 -34 -20 3 -8 9 -14 14
-14 4 0 6 7 3 15 -4 8 -1 15 4 15 6 0 12 -7 14 -15 2 -10 7 -7 15 10 6 14 7
25 2 25 -5 0 -9 -5 -9 -11z"/>
<path d="M5062 1710 c0 -14 2 -19 5 -12 2 6 2 18 0 25 -3 6 -5 1 -5 -13z"/>
<path d="M6116 1697 c-21 -34 -21 -51 -2 -79 12 -17 14 -17 32 3 19 22 19 22
-3 10 -18 -9 -23 -8 -28 9 -3 10 1 33 10 50 22 42 15 47 -9 7z"/>
<path d="M6361 1718 c0 -9 -4 -25 -7 -35 -5 -17 -5 -17 6 0 6 10 9 25 7 35 -4
15 -5 15 -6 0z"/>
<path d="M1100 1708 c0 -12 7 -18 23 -17 15 0 17 2 7 6 -8 3 -18 11 -22 17 -5
7 -8 4 -8 -6z"/>
<path d="M1128 1713 c7 -3 16 -2 19 1 4 3 -2 6 -13 5 -11 0 -14 -3 -6 -6z"/>
<path d="M1569 1704 c0 -10 -4 -43 -8 -71 -4 -29 -4 -53 -1 -53 8 0 22 131 15
139 -3 2 -5 -4 -6 -15z"/>
<path d="M1961 1720 c-1 -3 -4 -21 -6 -39 -2 -27 -1 -31 7 -18 5 10 7 28 5 40
-2 12 -5 20 -6 17z"/>
<path d="M1980 1694 c0 -14 -5 -35 -11 -47 -10 -21 -10 -21 5 -3 15 18 23 76
11 76 -3 0 -5 -12 -5 -26z"/>
<path d="M2542 1695 c0 -16 2 -22 5 -12 2 9 2 23 0 30 -3 6 -5 -1 -5 -18z"/>
<path d="M2762 1690 c0 -19 2 -27 5 -17 2 9 2 25 0 35 -3 9 -5 1 -5 -18z"/>
<path d="M4264 1688 c-16 -30 -16 -32 -1 -19 15 12 17 11 17 -3 0 -10 5 -14
10 -11 8 5 7 11 -1 21 -6 7 -9 21 -5 29 10 27 -3 16 -20 -17z"/>
<path d="M4681 1704 c0 -11 3 -14 6 -6 3 7 2 16 -1 19 -3 4 -6 -2 -5 -13z"/>
<path d="M1061 1694 c0 -11 3 -14 6 -6 3 7 2 16 -1 19 -3 4 -6 -2 -5 -13z"/>
<path d="M4117 1703 c-4 -3 -7 -11 -7 -17 0 -6 5 -5 12 2 6 6 9 14 7 17 -3 3
-9 2 -12 -2z"/>
<path d="M5078 1679 c-10 -17 -14 -27 -9 -24 5 3 19 -11 30 -31 17 -28 24 -34
35 -25 20 17 86 17 96 0 7 -10 9 -8 8 7 -2 16 -7 20 -22 16 -14 -4 -17 -2 -11
9 7 11 6 12 -6 3 -8 -6 -30 -14 -50 -18 -29 -5 -38 -3 -43 10 -9 24 -7 28 7
16 21 -18 35 1 15 21 -10 9 -18 13 -18 7 0 -5 -7 -10 -15 -10 -13 0 -14 4 -5
21 18 33 7 31 -12 -2z"/>
<path d="M1237 1693 c-4 -3 -7 -13 -7 -21 0 -18 13 -7 16 13 2 17 1 18 -9 8z"/>
<path d="M2131 1684 c0 -11 3 -14 6 -6 3 7 2 16 -1 19 -3 4 -6 -2 -5 -13z"/>
<path d="M3671 1684 c0 -11 3 -14 6 -6 3 7 2 16 -1 19 -3 4 -6 -2 -5 -13z"/>
<path d="M4230 1689 c0 -5 5 -7 10 -4 6 3 10 8 10 11 0 2 -4 4 -10 4 -5 0 -10
-5 -10 -11z"/>
<path d="M5861 1684 c0 -11 3 -14 6 -6 3 7 2 16 -1 19 -3 4 -6 -2 -5 -13z"/>
<path d="M1370 1674 c0 -8 5 -12 10 -9 6 4 8 11 5 16 -9 14 -15 11 -15 -7z"/>
<path d="M1708 1683 c6 -2 18 -2 25 0 6 3 1 5 -13 5 -14 0 -19 -2 -12 -5z"/>
<path d="M1870 1683 c0 -4 5 -15 10 -23 8 -13 10 -13 10 2 0 9 -4 20 -10 23
-5 3 -10 3 -10 -2z"/>
<path d="M3450 1674 c0 -8 -4 -13 -8 -10 -5 3 -8 -5 -7 -16 3 -37 21 -31 22 7
1 19 -1 35 -3 35 -2 0 -4 -7 -4 -16z"/>
<path d="M3585 1680 c3 -5 8 -10 11 -10 2 0 4 5 4 10 0 6 -5 10 -11 10 -5 0
-7 -4 -4 -10z"/>
<path d="M5296 1673 c-6 -14 -5 -15 5 -6 7 7 10 15 7 18 -3 3 -9 -2 -12 -12z"/>
<path d="M3563 1665 c0 -8 4 -15 9 -15 4 0 8 4 8 9 0 6 -4 12 -8 15 -5 3 -9
-1 -9 -9z"/>
<path d="M4070 1641 c-6 -23 -16 -41 -23 -42 -7 0 -3 -4 8 -9 28 -12 35 -12
35 1 0 5 -4 7 -10 4 -13 -8 -13 1 0 44 5 19 8 37 5 39 -2 2 -9 -14 -15 -37z"/>
<path d="M4667 1660 c4 -16 3 -21 -5 -16 -7 4 -12 2 -12 -3 0 -17 20 -13 27 5
3 8 1 20 -5 26 -8 8 -9 4 -5 -12z"/>
<path d="M5323 1665 c-3 -9 -3 -19 1 -22 3 -4 6 1 6 10 0 8 6 18 13 20 9 4 9
6 -1 6 -7 1 -15 -6 -19 -14z"/>
<path d="M5437 1669 c7 -7 15 -10 18 -7 3 3 -2 9 -12 12 -14 6 -15 5 -6 -5z"/>
<path d="M6500 1670 c0 -6 4 -9 9 -6 5 4 12 1 14 -4 3 -6 4 -5 3 2 -3 15 -26
23 -26 8z"/>
<path d="M1055 1659 c-11 -17 1 -21 15 -4 8 9 8 15 2 15 -6 0 -14 -5 -17 -11z"/>
<path d="M1257 1663 c-4 -3 -7 -11 -7 -17 0 -6 5 -5 12 2 6 6 9 14 7 17 -3 3
-9 2 -12 -2z"/>
<path d="M1350 1665 c0 -5 5 -17 10 -25 5 -8 10 -10 10 -5 0 6 -5 17 -10 25
-5 8 -10 11 -10 5z"/>
<path d="M1390 1655 c-7 -9 -8 -15 -2 -15 5 0 12 7 16 15 3 8 4 15 2 15 -2 0
-9 -7 -16 -15z"/>
<path d="M1716 1653 c-6 -14 -5 -15 5 -6 7 7 10 15 7 18 -3 3 -9 -2 -12 -12z"/>
<path d="M2410 1628 c-3 -26 -1 -43 3 -39 5 5 7 26 5 47 l-3 39 -5 -47z"/>
<path d="M4801 1653 c0 -13 -5 -23 -11 -23 -5 0 -7 8 -4 18 5 14 3 14 -11 -3
-15 -19 -15 -20 5 -23 28 -5 33 1 27 30 -4 23 -4 23 -6 1z"/>
<path d="M6130 1660 c0 -5 5 -10 10 -10 6 0 10 5 10 10 0 6 -4 10 -10 10 -5 0
-10 -4 -10 -10z"/>
<path d="M6282 1650 c0 -14 2 -19 5 -12 2 6 2 18 0 25 -3 6 -5 1 -5 -13z"/>
<path d="M6394 1650 c0 -10 2 -17 5 -15 2 3 9 -5 15 -17 6 -12 18 -23 26 -25
10 -3 11 -2 4 4 -6 4 -19 23 -28 41 -19 37 -22 39 -22 12z"/>
<path d="M1850 1649 c0 -5 5 -7 10 -4 6 3 10 8 10 11 0 2 -4 4 -10 4 -5 0 -10
-5 -10 -11z"/>
<path d="M2090 1630 c0 -16 4 -30 8 -30 5 0 7 14 4 30 -2 17 -6 30 -8 30 -2 0
-4 -13 -4 -30z"/>
<path d="M2626 1643 c-6 -14 -5 -15 5 -6 7 7 10 15 7 18 -3 3 -9 -2 -12 -12z"/>
<path d="M3036 1645 c4 -8 11 -15 16 -15 6 0 5 6 -2 15 -7 8 -14 15 -16 15 -2
0 -1 -7 2 -15z"/>
<path d="M3586 1643 c-6 -14 -5 -15 5 -6 7 7 10 15 7 18 -3 3 -9 -2 -12 -12z"/>
<path d="M5843 1650 c2 -8 10 -15 17 -15 7 0 15 7 17 15 4 13 3 13 -6 0 -10
-13 -12 -13 -22 0 -9 13 -10 13 -6 0z"/>
<path d="M1080 1645 c0 -5 5 -17 10 -25 5 -8 10 -10 10 -5 0 6 -5 17 -10 25
-5 8 -10 11 -10 5z"/>
<path d="M1990 1639 c0 -5 5 -7 12 -3 7 5 9 2 5 -9 -4 -11 -2 -14 9 -10 11 4
12 9 3 19 -14 17 -29 18 -29 3z"/>
<path d="M2381 1627 c0 -16 -5 -26 -11 -22 -5 3 -10 2 -10 -4 0 -5 5 -13 10
-16 13 -8 23 18 17 47 -4 20 -4 20 -6 -5z"/>
<path d="M2771 1644 c-1 -7 8 -22 19 -35 16 -19 19 -20 13 -5 -5 15 -3 17 8
11 11 -7 12 -6 2 7 -7 8 -9 19 -5 24 4 4 0 3 -10 -4 -13 -10 -17 -10 -21 0 -3
8 -6 9 -6 2z"/>
<path d="M4250 1640 c0 -5 5 -10 11 -10 6 0 8 -8 4 -19 -7 -22 10 -37 21 -20
5 8 3 9 -6 4 -10 -6 -12 -4 -7 8 3 10 4 24 1 32 -7 17 -24 20 -24 5z"/>
<path d="M5340 1641 c0 -5 7 -11 14 -14 10 -4 13 -1 9 9 -6 15 -23 19 -23 5z"/>
<path d="M5422 1638 c-7 -7 -12 -18 -12 -25 0 -7 -7 -13 -16 -13 -14 0 -15 2
-3 18 13 15 12 16 -3 3 -25 -19 -23 -40 2 -34 12 3 27 18 36 34 16 31 15 36
-4 17z"/>
<path d="M5987 1643 c-13 -12 -7 -41 9 -47 24 -9 31 -7 11 5 -12 7 -16 17 -12
30 7 20 3 24 -8 12z"/>
<path d="M6483 1631 c-3 -13 -11 -17 -26 -13 -19 5 -19 4 -6 -10 9 -10 18 -13
25 -7 12 10 26 49 17 49 -3 0 -7 -8 -10 -19z"/>
<path d="M1400 1630 c-8 -5 -12 -12 -9 -15 4 -3 12 1 19 10 14 17 11 19 -10 5z"/>
<path d="M1860 1625 c-7 -9 -10 -18 -7 -21 3 -3 10 4 17 15 13 25 8 27 -10 6z"/>
<path d="M2071 1627 c-1 -10 -4 -16 -8 -14 -5 2 -24 -1 -43 -9 -19 -7 -30 -13
-23 -13 6 -1 23 3 37 9 19 7 26 6 26 -3 0 -6 5 -4 11 6 6 10 8 23 5 30 -2 7
-5 4 -5 -6z"/>
<path d="M2271 1624 c0 -11 3 -14 6 -6 3 7 2 16 -1 19 -3 4 -6 -2 -5 -13z"/>
<path d="M2521 1629 c-1 -9 7 -23 17 -32 23 -21 29 -21 29 -3 0 8 -6 12 -14 9
-7 -3 -17 5 -22 18 -6 15 -10 18 -10 8z"/>
<path d="M2826 1625 c4 -8 11 -15 16 -15 6 0 5 6 -2 15 -7 8 -14 15 -16 15 -2
0 -1 -7 2 -15z"/>
<path d="M3153 1626 c0 -8 6 -12 14 -9 7 3 10 9 7 14 -8 14 -21 11 -21 -5z"/>
<path d="M3478 1618 c3 -14 0 -17 -14 -12 -17 6 -17 5 1 -9 11 -9 29 -16 40
-16 17 1 17 2 3 6 -22 5 -23 20 -3 25 10 2 8 6 -9 14 -20 9 -23 9 -18 -8z"/>
<path d="M4706 1623 c7 -25 31 -38 31 -17 0 8 -3 12 -5 9 -3 -3 -11 3 -18 13
-12 15 -13 15 -8 -5z"/>
<path d="M5880 1626 c-6 -9 -10 -21 -7 -28 4 -9 6 -7 6 4 1 9 7 18 14 21 6 2
9 7 6 11 -3 4 -12 0 -19 -8z"/>
<path d="M5946 1625 c-9 -26 -7 -32 5 -12 6 10 9 21 6 23 -2 3 -7 -2 -11 -11z"/>
<path d="M6215 1629 c-4 -6 -5 -12 -2 -15 2 -3 7 2 10 11 7 17 1 20 -8 4z"/>
<path d="M1040 1620 c0 -5 5 -9 11 -7 6 1 14 -4 17 -12 3 -9 0 -11 -9 -6 -11
6 -11 5 -2 -5 18 -19 35 -3 20 20 -12 21 -37 27 -37 10z"/>
<path d="M1275 1620 c3 -5 8 -10 11 -10 2 0 4 5 4 10 0 6 -5 10 -11 10 -5 0
-7 -4 -4 -10z"/>
<path d="M1430 1620 c0 -5 5 -10 11 -10 5 0 7 5 4 10 -3 6 -8 10 -11 10 -2 0
-4 -4 -4 -10z"/>
<path d="M1734 1612 c20 -23 41 -28 50 -13 4 5 -4 7 -16 4 -18 -4 -20 -2 -8 6
8 5 11 14 6 18 -5 4 -11 2 -13 -5 -4 -10 -8 -10 -21 0 -12 9 -11 6 2 -10z"/>
<path d="M2590 1620 c-9 -6 -10 -10 -3 -10 6 0 15 5 18 10 8 12 4 12 -15 0z"/>
<path d="M2640 1620 c0 -5 5 -10 10 -10 6 0 10 5 10 10 0 6 -4 10 -10 10 -5 0
-10 -4 -10 -10z"/>
<path d="M2880 1621 c0 -7 -4 -9 -10 -6 -5 3 -10 2 -10 -4 0 -5 4 -12 9 -15
10 -6 25 24 16 32 -3 3 -5 0 -5 -7z"/>
<path d="M3561 1618 c-1 -21 -17 -24 -24 -5 -4 9 -6 9 -6 0 -1 -17 19 -27 31
-15 6 6 8 16 5 24 -4 9 -6 7 -6 -4z"/>
<path d="M4290 1619 c0 -5 5 -7 10 -4 6 3 10 8 10 11 0 2 -4 4 -10 4 -5 0 -10
-5 -10 -11z"/>
<path d="M4412 1610 c0 -14 2 -19 5 -12 2 6 2 18 0 25 -3 6 -5 1 -5 -13z"/>
<path d="M5321 1614 c0 -11 3 -14 6 -6 3 7 2 16 -1 19 -3 4 -6 -2 -5 -13z"/>
<path d="M1815 1611 c-6 -11 13 -26 22 -17 4 3 1 6 -6 6 -7 0 -9 5 -6 10 3 6
4 10 1 10 -3 0 -7 -4 -11 -9z"/>
<path d="M2609 1603 c-13 -16 -12 -17 4 -4 16 13 21 21 13 21 -2 0 -10 -8 -17
-17z"/>
<path d="M2900 1606 c0 -8 4 -17 9 -20 5 -4 7 3 4 14 -6 23 -13 26 -13 6z"/>
<path d="M2920 1610 c0 -5 5 -10 10 -10 6 0 10 5 10 10 0 6 -4 10 -10 10 -5 0
-10 -4 -10 -10z"/>
<path d="M3197 1601 c-4 -17 -3 -21 5 -13 5 5 8 16 6 23 -3 8 -7 3 -11 -10z"/>
<path d="M3822 1600 c0 -14 2 -19 5 -12 2 6 2 18 0 25 -3 6 -5 1 -5 -13z"/>
<path d="M4821 1604 c0 -11 3 -14 6 -6 3 7 2 16 -1 19 -3 4 -6 -2 -5 -13z"/>
<path d="M5611 1604 c0 -11 3 -14 6 -6 3 7 2 16 -1 19 -3 4 -6 -2 -5 -13z"/>
<path d="M5902 1613 c-10 -4 -10 -8 -1 -19 14 -17 29 -18 29 -3 0 5 -4 7 -10
4 -5 -3 -10 -2 -10 4 0 5 6 12 13 14 6 3 8 5 2 5 -5 0 -16 -2 -23 -5z"/>
<path d="M6170 1609 c0 -5 5 -7 10 -4 6 3 10 8 10 11 0 2 -4 4 -10 4 -5 0 -10
-5 -10 -11z"/>
<path d="M6281 1604 c0 -11 3 -14 6 -6 3 7 2 16 -1 19 -3 4 -6 -2 -5 -13z"/>
<path d="M6380 1612 c0 -12 19 -26 26 -19 2 2 -2 10 -11 17 -9 8 -15 8 -15 2z"/>
<path d="M6501 1604 c0 -11 3 -14 6 -6 3 7 2 16 -1 19 -3 4 -6 -2 -5 -13z"/>
<path d="M1405 1601 c-3 -5 -2 -12 3 -15 5 -3 9 1 9 9 0 17 -3 19 -12 6z"/>
<path d="M2241 1594 c0 -11 3 -14 6 -6 3 7 2 16 -1 19 -3 4 -6 -2 -5 -13z"/>
<path d="M5340 1601 c0 -6 4 -13 10 -16 6 -3 7 1 4 9 -7 18 -14 21 -14 7z"/>
<path d="M1280 1586 c7 -7 14 -6 21 1 9 9 7 12 -9 10 -14 -1 -18 -5 -12 -11z"/>
<path d="M4680 1596 c0 -2 7 -7 16 -10 8 -3 12 -2 9 4 -6 10 -25 14 -25 6z"/>
<path d="M5145 1590 c-4 -7 3 -8 22 -4 38 9 42 14 10 14 -14 0 -29 -5 -32 -10z"/>
<path d="M5470 1589 c0 -5 5 -7 10 -4 6 3 10 8 10 11 0 2 -4 4 -10 4 -5 0 -10
-5 -10 -11z"/>
<path d="M6175 1590 c-16 -7 -17 -9 -3 -9 9 -1 20 4 23 9 7 11 7 11 -20 0z"/>
</g>
</svg>
